<?xml version="1.0" standalone="no"?><!DOCTYPE svg PUBLIC "-//W3C//DTD SVG 1.1//EN" "http://www.w3.org/Graphics/SVG/1.1/DTD/svg11.dtd"><svg t="1593396261979" class="icon" viewBox="0 0 3562 1024" version="1.1" xmlns="http://www.w3.org/2000/svg" p-id="1913" xmlns:xlink="http://www.w3.org/1999/xlink" width="695.703125" height="200"><defs><style type="text/css"></style></defs><path d="M1416.767919 1024C1134.646702 1024 904.767919 794.119746 904.767919 512 904.767919 229.878782 1134.646702 0 1416.767919 0c282.119746 0 511.998528 229.878782 511.998528 512 0 282.119746-229.878782 512-511.998528 512z m0-975.771006c-255.600422 0-463.771006 208.170584-463.771006 463.771006S1161.167497 975.776893 1416.767919 975.776893 1880.544812 767.600422 1880.544812 512 1672.368341 48.228994 1416.767919 48.228994z m0 0" p-id="1914"></path><path d="M1414.358677 633.367226c-125.390969 0-227.471012-102.080043-227.471012-227.465126 0-125.385082 102.080043-227.465125 227.471012-227.465125 125.385082 0 227.465125 102.080043 227.465125 227.465125 0 125.385082-102.080043 227.465125-227.465125 227.465126z m0-406.707144c-98.865758 0-179.242018 80.37626-179.242018 179.242018S1315.492919 585.144119 1414.358677 585.144119c98.859871 0 179.236131-80.37626 179.236131-179.242019S1513.218548 226.660082 1414.358677 226.660082z m0 0" p-id="1915"></path><path d="M1416.767919 1024c-131.819539 0-258.009664-50.638236-353.65525-141.460923l-10.452313-9.645798 4.019328-13.665127C1100.889349 698.47416 1247.976743 585.949162 1414.358677 585.949162c168.791176 0 315.87857 114.135084 358.47815 276.491803l3.214285 13.665127-10.446427 9.64727c-94.041387 89.218488-217.823742 138.246638-348.836766 138.246638z m-309.451471-166.381934c85.200631 76.358404 194.511344 118.158827 309.451471 118.158827 113.330041 0 221.036555-40.996852 305.432143-115.74517C1681.209097 725.804414 1556.623171 633.367226 1414.358677 633.367226c-139.855252 0-264.442649 91.632145-307.042229 224.25084z m0 0" p-id="1916"></path></svg>